<mxfile host="Electron" modified="2023-06-27T21:05:14.367Z" agent="Mozilla/5.0 (Windows NT 10.0; Win64; x64) AppleWebKit/537.36 (KHTML, like Gecko) draw.io/21.5.1 Chrome/112.0.5615.204 Electron/24.6.0 Safari/537.36" etag="VbrvXL-w6BsCsQcoAFdU" version="21.5.1" type="device">
  <diagram name="Page-1" id="-upYI9Og3K5OpTXtrUxu">
    <mxGraphModel dx="1038" dy="616" grid="1" gridSize="10" guides="1" tooltips="1" connect="1" arrows="1" fold="1" page="1" pageScale="1" pageWidth="1600" pageHeight="900" math="0" shadow="0">
      <root>
        <mxCell id="0" />
        <mxCell id="1" parent="0" />
        <mxCell id="hknT0nu2qaCQ0JWSeQc5-1" value="" style="image;aspect=fixed;perimeter=ellipsePerimeter;html=1;align=center;shadow=0;dashed=0;spacingTop=3;image=img/lib/active_directory/windows_server.svg;" parent="1" vertex="1">
          <mxGeometry x="660" y="445" width="41" height="50" as="geometry" />
        </mxCell>
        <mxCell id="hknT0nu2qaCQ0JWSeQc5-12" style="edgeStyle=orthogonalEdgeStyle;rounded=0;orthogonalLoop=1;jettySize=auto;html=1;exitX=0.5;exitY=0;exitDx=0;exitDy=0;fillColor=#a0522d;strokeColor=#6D1F00;entryX=0.5;entryY=1;entryDx=0;entryDy=0;entryPerimeter=0;" parent="1" source="hknT0nu2qaCQ0JWSeQc5-3" target="hknT0nu2qaCQ0JWSeQc5-15" edge="1">
          <mxGeometry relative="1" as="geometry">
            <mxPoint x="805" y="295" as="targetPoint" />
          </mxGeometry>
        </mxCell>
        <mxCell id="hknT0nu2qaCQ0JWSeQc5-3" value="" style="image;aspect=fixed;perimeter=ellipsePerimeter;html=1;align=center;shadow=0;dashed=0;spacingTop=3;image=img/lib/active_directory/switch.svg;" parent="1" vertex="1">
          <mxGeometry x="780" y="365" width="50" height="50" as="geometry" />
        </mxCell>
        <mxCell id="hknT0nu2qaCQ0JWSeQc5-14" style="rounded=0;orthogonalLoop=1;jettySize=auto;html=1;exitX=0.38;exitY=0.025;exitDx=0;exitDy=0;exitPerimeter=0;entryX=0.5;entryY=1;entryDx=0;entryDy=0;startArrow=classic;startFill=1;fillColor=#f0a30a;strokeColor=#BD7000;" parent="1" source="hknT0nu2qaCQ0JWSeQc5-13" target="hknT0nu2qaCQ0JWSeQc5-3" edge="1">
          <mxGeometry relative="1" as="geometry" />
        </mxCell>
        <mxCell id="hknT0nu2qaCQ0JWSeQc5-13" value="" style="outlineConnect=0;dashed=0;verticalLabelPosition=bottom;verticalAlign=top;align=center;html=1;shape=mxgraph.aws3.internet_2;fillColor=#D2D3D3;gradientColor=none;" parent="1" vertex="1">
          <mxGeometry x="780" y="635" width="60" height="40" as="geometry" />
        </mxCell>
        <mxCell id="hknT0nu2qaCQ0JWSeQc5-15" value="" style="outlineConnect=0;dashed=0;verticalLabelPosition=bottom;verticalAlign=top;align=center;html=1;shape=mxgraph.aws3.internet_3;fillColor=#D2D3D3;gradientColor=none;" parent="1" vertex="1">
          <mxGeometry x="770" y="245" width="70" height="44" as="geometry" />
        </mxCell>
        <mxCell id="hknT0nu2qaCQ0JWSeQc5-19" style="edgeStyle=orthogonalEdgeStyle;rounded=0;orthogonalLoop=1;jettySize=auto;html=1;exitX=0;exitY=0;exitDx=0;exitDy=0;fillColor=#a0522d;strokeColor=#6D1F00;startArrow=classic;startFill=1;endArrow=classic;endFill=1;" parent="1" source="hknT0nu2qaCQ0JWSeQc5-3" edge="1">
          <mxGeometry relative="1" as="geometry">
            <mxPoint x="662" y="465" as="targetPoint" />
          </mxGeometry>
        </mxCell>
        <mxCell id="hknT0nu2qaCQ0JWSeQc5-21" value="WiFi 2.5+5GHz" style="text;strokeColor=none;fillColor=none;align=left;verticalAlign=middle;spacingLeft=4;spacingRight=4;overflow=hidden;points=[[0,0.5],[1,0.5]];portConstraint=eastwest;rotatable=0;whiteSpace=wrap;html=1;" parent="1" vertex="1">
          <mxGeometry x="755" y="225" width="100" height="30" as="geometry" />
        </mxCell>
        <mxCell id="hknT0nu2qaCQ0JWSeQc5-22" value="Serveur 1" style="text;strokeColor=none;fillColor=none;align=left;verticalAlign=middle;spacingLeft=4;spacingRight=4;overflow=hidden;points=[[0,0.5],[1,0.5]];portConstraint=eastwest;rotatable=0;whiteSpace=wrap;html=1;" parent="1" vertex="1">
          <mxGeometry x="650" y="485" width="80" height="30" as="geometry" />
        </mxCell>
        <mxCell id="hknT0nu2qaCQ0JWSeQc5-23" value="Serveur 2" style="text;strokeColor=none;fillColor=none;align=left;verticalAlign=middle;spacingLeft=4;spacingRight=4;overflow=hidden;points=[[0,0.5],[1,0.5]];portConstraint=eastwest;rotatable=0;whiteSpace=wrap;html=1;" parent="1" vertex="1">
          <mxGeometry x="900" y="495" width="80" height="30" as="geometry" />
        </mxCell>
        <mxCell id="hknT0nu2qaCQ0JWSeQc5-24" value="Switch" style="text;strokeColor=none;fillColor=none;align=left;verticalAlign=middle;spacingLeft=4;spacingRight=4;overflow=hidden;points=[[0,0.5],[1,0.5]];portConstraint=eastwest;rotatable=0;whiteSpace=wrap;html=1;" parent="1" vertex="1">
          <mxGeometry x="810" y="415" width="80" height="30" as="geometry" />
        </mxCell>
        <mxCell id="hknT0nu2qaCQ0JWSeQc5-25" value="WAN" style="text;strokeColor=none;fillColor=none;align=left;verticalAlign=middle;spacingLeft=4;spacingRight=4;overflow=hidden;points=[[0,0.5],[1,0.5]];portConstraint=eastwest;rotatable=0;whiteSpace=wrap;html=1;" parent="1" vertex="1">
          <mxGeometry x="790" y="670" width="80" height="30" as="geometry" />
        </mxCell>
        <mxCell id="hknT0nu2qaCQ0JWSeQc5-26" value="" style="endArrow=none;dashed=1;html=1;rounded=0;entryX=0;entryY=0.5;entryDx=0;entryDy=0;" parent="1" target="hknT0nu2qaCQ0JWSeQc5-1" edge="1">
          <mxGeometry width="50" height="50" relative="1" as="geometry">
            <mxPoint x="590" y="470" as="sourcePoint" />
            <mxPoint x="640" y="465" as="targetPoint" />
          </mxGeometry>
        </mxCell>
        <mxCell id="hknT0nu2qaCQ0JWSeQc5-27" value="" style="endArrow=none;dashed=1;html=1;rounded=0;exitX=1;exitY=0.5;exitDx=0;exitDy=0;" parent="1" source="hknT0nu2qaCQ0JWSeQc5-2" edge="1">
          <mxGeometry width="50" height="50" relative="1" as="geometry">
            <mxPoint x="980" y="469.5" as="sourcePoint" />
            <mxPoint x="1010" y="470" as="targetPoint" />
          </mxGeometry>
        </mxCell>
        <mxCell id="hknT0nu2qaCQ0JWSeQc5-28" value="" style="whiteSpace=wrap;html=1;aspect=fixed;" parent="1" vertex="1">
          <mxGeometry x="230" y="295" width="360" height="360" as="geometry" />
        </mxCell>
        <mxCell id="hknT0nu2qaCQ0JWSeQc5-2" value="" style="image;aspect=fixed;perimeter=ellipsePerimeter;html=1;align=center;shadow=0;dashed=0;spacingTop=3;image=img/lib/active_directory/windows_server.svg;" parent="1" vertex="1">
          <mxGeometry x="900" y="445" width="41" height="50" as="geometry" />
        </mxCell>
        <mxCell id="hknT0nu2qaCQ0JWSeQc5-30" value="" style="whiteSpace=wrap;html=1;aspect=fixed;" parent="1" vertex="1">
          <mxGeometry x="1010" y="295" width="360" height="360" as="geometry" />
        </mxCell>
        <mxCell id="hknT0nu2qaCQ0JWSeQc5-32" value="Proxmox" style="text;html=1;strokeColor=none;fillColor=none;align=center;verticalAlign=middle;whiteSpace=wrap;rounded=0;" parent="1" vertex="1">
          <mxGeometry x="370" y="295" width="60" height="30" as="geometry" />
        </mxCell>
        <mxCell id="hknT0nu2qaCQ0JWSeQc5-33" value="Proxmox" style="text;html=1;strokeColor=none;fillColor=none;align=center;verticalAlign=middle;whiteSpace=wrap;rounded=0;" parent="1" vertex="1">
          <mxGeometry x="1170" y="295" width="60" height="30" as="geometry" />
        </mxCell>
        <mxCell id="hknT0nu2qaCQ0JWSeQc5-34" value="" style="endArrow=none;dashed=1;html=1;dashPattern=1 3;strokeWidth=2;rounded=0;exitX=1;exitY=0.7;exitDx=0;exitDy=0;exitPerimeter=0;" parent="1" source="hknT0nu2qaCQ0JWSeQc5-15" target="hknT0nu2qaCQ0JWSeQc5-35" edge="1">
          <mxGeometry width="50" height="50" relative="1" as="geometry">
            <mxPoint x="890" y="240" as="sourcePoint" />
            <mxPoint x="940" y="190" as="targetPoint" />
          </mxGeometry>
        </mxCell>
        <mxCell id="hknT0nu2qaCQ0JWSeQc5-35" value="" style="verticalLabelPosition=bottom;sketch=0;aspect=fixed;html=1;verticalAlign=top;strokeColor=none;align=center;outlineConnect=0;shape=mxgraph.citrix.laptop_1;" parent="1" vertex="1">
          <mxGeometry x="960" y="160" width="47.27" height="40" as="geometry" />
        </mxCell>
        <mxCell id="hknT0nu2qaCQ0JWSeQc5-36" value="Windows Client" style="text;html=1;strokeColor=none;fillColor=none;align=center;verticalAlign=middle;whiteSpace=wrap;rounded=0;" parent="1" vertex="1">
          <mxGeometry x="1000" y="170" width="76" height="30" as="geometry" />
        </mxCell>
        <mxCell id="hknT0nu2qaCQ0JWSeQc5-37" value="" style="verticalLabelPosition=bottom;verticalAlign=top;html=1;shadow=0;dashed=0;strokeWidth=1;shape=mxgraph.android.phone2;strokeColor=#c0c0c0;" parent="1" vertex="1">
          <mxGeometry x="640" y="160" width="20" height="40" as="geometry" />
        </mxCell>
        <mxCell id="hknT0nu2qaCQ0JWSeQc5-38" value="" style="endArrow=none;dashed=1;html=1;dashPattern=1 3;strokeWidth=2;rounded=0;exitX=0;exitY=0.7;exitDx=0;exitDy=0;exitPerimeter=0;entryX=1.006;entryY=0.931;entryDx=0;entryDy=0;entryPerimeter=0;" parent="1" source="hknT0nu2qaCQ0JWSeQc5-15" target="hknT0nu2qaCQ0JWSeQc5-37" edge="1">
          <mxGeometry width="50" height="50" relative="1" as="geometry">
            <mxPoint x="720" y="240" as="sourcePoint" />
            <mxPoint x="770" y="190" as="targetPoint" />
          </mxGeometry>
        </mxCell>
        <mxCell id="hknT0nu2qaCQ0JWSeQc5-39" value="Téléphone" style="text;html=1;strokeColor=none;fillColor=none;align=center;verticalAlign=middle;whiteSpace=wrap;rounded=0;" parent="1" vertex="1">
          <mxGeometry x="564" y="160" width="76" height="30" as="geometry" />
        </mxCell>
        <mxCell id="hknT0nu2qaCQ0JWSeQc5-41" value="" style="shape=image;verticalLabelPosition=bottom;verticalAlign=top;imageAspect=0;aspect=fixed;image=data:image/png,iVBORw0KGgoAAAANSUhEUgAAAgAAAAIACAYAAAD0eNT6AAAABHNCSVQICAgIfAhkiAAAAAlwSFlzAAA3XQAAN10BGYBGXQAAABl0RVh0U29mdHdhcmUAd3d3Lmlua3NjYXBlLm9yZ5vuPBoAAB2pSURBVHic7d1Nj1xXfh/g36lqkqJEShqN3iWKZL8wiwTIwjESe+dF4GTiZeJVvkGAAPkEsnfZepXvwI3tiYYaWQ7oAAFixEKcBHCQAAkSTGIoGo2oJqkxLbLrniyquruqu0lKrMuqvn2eByhVd9Wt26daUp9fnXvO/5QAAGfT73/9ai6UndTspGQnqTdSs5OUN8q62wYALOH2F5fyy/PbGZed1Ew7+FJnnX5548TX1NzdWHEzAYDv63Z9IX99Zyt1NOvgZ5/qU2/kQXknoyR1dmyZ/eMpH/GNAADAafBZPZcv722my05KN+vgy42U7KTWKymlvz675q4AAACrcrOO8+LdqxlnJ93sE3zJ/jX6a0kZr6QdAgAA9KzWkk/uvJ/JaO4TfHaSupOSzaScX3cTBQAAeFYfffN2xg93UsuN1LKT7M+0z3aSi2tu3ZOZBAgAT/Dp3R9mLzfSTXaSMu3ga7mRku1k73LqaHrcAD9OCwAAtO3TO6/k4Wgno9lQfa03ktlM+0f1B0mSMjo8foCd/UkEAADOvk8+fyn1wna6Mv0En7m18o/KmymZW0Z3Rnr4pxAAADgbbtULyf2t1MmN6af5/bXyuZFJ3j04rsx90UZff6KG3zoAg/NZPZcv7l2fdvBH1sqnXlkcq+exrAIA4NT5sI7y67tXM5mrdnewlC7XUorR62UJAACsRa0lH3/1XrrxTkZlOky/X8M+2ToVa+XPMgEAgOfqD++/lXOPpsP08zXsS7aTvLju5jVLHQAAlvbT3dfSlRvpspPR0evyk8vJkbXyPnqeCgIAAE936xcvp9s4XCs/f12+y2tJnfXzbc+sHxIBAICpH//li9m4uD0taztXw77UnaS8tf9B/mC72bk7hkcAAGjJrXoh3f3NZO9GRmW6Vr7M1srX+m5SykKnPt/Zc6b4twpw1tyuG/n27rV05UbqZDrxLpluWFPqB9bKYxUAwFB9WEf5e7sfpNvfoGbhuvx1a+V5IgEA4BSrteSjr97Nxngn3dzM+jpbK1/KhXU3kYESAABOgU/uv5m9upNMZh38wt7y1srTP3UAAFbko90fJOXGQQ376Xaz0+I4k8nLZtazagIAQF/+4MvLubCxk67M1svXG7P69Tsp+eHBfrPz283q7FkTAQDg+7j5s4t56dL2bAndXAdfd5LydmpyuLe8ojicXgIAwFE36/m8fH8z3d60k89BDfsbSX0vpZT9D/MLe8vDgPgvFmjT7bqRB3evps5dlz+oYV8/SMp43U2E58YqAOBM+7CO8qtfX8l4NO3cj6+VP7fuJsJaCADAmfBHX76bvfHOsRr2qVsp5YV1Nw9OHcsAgcG4de+NdHUn42468a7OVcDby0tJooY9fHcCAHB6/P7Xr+bibF/5Wuc2qSk7SfdKRknqkbXy+nh4JgIAsFq3v7iUB+cP18pPd6Gbdfbl9XSz46yVh+dKAAD6d7u+kG/ubB9MvpuvYf+gvJMkmd+PrujhYdX8Xwc8m8/quXx5b3O6SU13WMN+2tFfSdGrw6llFQDwRDfrOC/evZpktlb+YKj+RlKvWisPAyUAAKm15F9/fSUb5fATfA5q2G9aKw9nkAAADfn4m3cyebiT0WytfM3+cP22tfLQGHUA4Iz58b3Xc67upE5uHF6Pn+0tX/cuZTQ38+5gGZ3PAdAiAQCG5tM7r+TRaP4T/HQpXSk7SffqdJOakXXywBMJADAEt77+x0n+RWp28qi8kcQneGApAgAMQc3fSim/7tM80JfR0w8BAM4aAQAAGuQSAHwXN+s4l3evpMtmkq2kbE3vs5lS/ll+9MqfrrmFAN+LAAD7fvyXL6a8sJlStlJmHXyZdfh191pqOXfiNfjSWUMPDI4AQFs+uf9mum4rNVtJnX6Cn95vJeXtx77O5DvgjBEAOFtu1408uHs10+H5rdT9IfvZcP1kcun4i/TuQHsEAIbnD768nI2NrZRsZZTNdHPX5B/sfrCwQY2+HeBEAgCnT60ln/7inUzGs0/wBxPupt+XWSGcJKk50snr8QG+CwGA9bhZz+fyvevTWfX1sINPNvPx3c3k3MUTX6d/B+iFAMDz89HuD5LZNfiSxVn12X0/tYx06ADrIQDw7D6so/zanfdSR7NZ9bNP8Ifr5H/w+BefoZ5/cpbeDNAKAYAnu/mzi7n06vVkb9qpL8yq372Wbnxh3U0E4PsTAJjuIT+qWxnXaefezQ3X1/pu0pWDqtE+6wKcCQJAC27WcV7Z/SCTE2bUJ1sp3ctJpjPqk8VO3lazAGeSAHBWfPL5S9m7sNjBH1yP372aSTl37DX6doBmCQBD8of338q4mw3Pd3Mz6rOVSXlLhw7AdyUAnCaf1XP5xd2rqdmfVX/YwddspkxeOjxYbw/AsxMAVu3WL15OxnPX4OeG7H++e2WhjO08/T0APRIA+lZryUdfvZsy2sq4bB7MqD8oglNePzj2WKeulwdgNQSAZ3GrXsjo/vV0da6MbZ1+or+1u5nxxnR/+GN16jmTin/LwPAIAI/z093XpsvmctKs+vfSldHiC4rOHoDBaDcAfFhH+ZWv38+oHKlTP7sm3+XVx3foenoAhu1sB4CbP7uYyy9NO/VaFmfVZ/daMjq/3gYCwHoMPwDcuvfG9Dp8PVKnvm4leTtVKTsAOOr0B4DbdSO/vPtBxlmsU38wZN9dPjh2oavX7wPA45yOAHD7i0t5cO7kOvV/tXs1o7JxYp16AOCZrC4AfPTN2ynd1sG2svPX4x+UN48dr6MHgOemvwDwWT2Xz+9dS6nTWfVlYQndZrL34vTA0RNOAgOkDgAwQN8vAHx655Xslekn+HpkjfzPd9/P+DFlbAGAU2UxANRa8vFX7yWjrdRyvAjOo/LDx5/KhyAAGIqN/OTr38v+jPpbu9dTZmVs9ecAcGZtpJR/fvCdTh8AmmBGHgA0SAAAgAaNUmt9+mEAwFliBAAAGiQAwLKKDaeA4REAAKBBo5SYAwAAjTECAAANEgAAoEGjxCUAAGiNEQAAaJAAAAANEgBgWZ1ttIDhGaWaAwAArTECAAANEgAAoEECAAA0SB0AAGiQEQAAaJAAAAANshsgLKuoAwAMjxEAAGiQAAAADRIAAKBBSgEDQIOMAABAgwQAAGiQSoAA0CAjAADQIAEAlqUQEDBAAgAANGiUUswBAIDGGAEAgAYJAADQIAEAABqkDgAANMgIAAA0SACAZU3UAQCGx26AANAgIwAA0CABAAAaJAAAQIMsAwSABhkBAIAGCQAA0CABAAAaNEoxBwCWUopCQMDgGAEAgAYJAADQIKWAAaBBRgAAoEECAAA0SAAAgAYpBQwADTICAMsqUQcAGBwBAAAapBIgADTICAAANEgAAIAGCQAA0CDLAAGgQUYAAKBBAgAsSx0AYIAEAABo0Ci1mgMAAI0xAgAADRIAAKBBlgECQIOMAABAgwQAAGiQAAAADbIdMCyrUwgIGB4jAADQIAEAABokAABAg0ap5gAAQGuMAABAgwQAAGiQUsAA0CAjALCsMlEHABgcAQAAGiQAAECDlAIGgAYZAQCABgkAANAgywABoEFGAACgQQIALKtEHQBgcAQAAGiQ3QABoEFGAACgQQIAADRIAACABo2SYg4AADTGCAAANEgAAIAG2Q0QljVRCAgYHiMAANAgAQAAGiQAAECDlAIGgAYZAQCABgkAANAgAQAAGjRKzAGApZSiDgAwOEYAAKBBAgAANEgpYABokBEAAGiQAAAADRIAAKBBlgECQIOMAABAgwQAWFaJQkDA4NgNEAAaZAQAABokAABAgwQAAGiQZYAA0CAjAADQIAEAABokAMCy1AEABsh2wADQICMAANAgAQAAGjRKrS4BAEBjjAAAQIMEAABokAAAAA1SChiW1akDAAyPEQAAaJAAAAANEgAAoEFKAQNAg4wAAECDBAAAaJBlgADQICMAANAgAQCWVRQCAoZHAACABo1SzQEAgNYYAQCABgkAANAgywABoEFGAACgQQIAADRIAIBllaIOADA4dgMEgAYZAQCABgkAANAgAQAAGqQUMAA0yAgAADRIAACABo2S4hIAADTGCAAsaxKFgIDBEQAAoEECAAA0SClgAGiQEQAAaJAAAAANEgAAoEGjxBwAAGiNEQBYVlEHABgeAQAAGmQ3QABokBEAAGiQAAAADdpYdwMAoBm11pR0qemSdCll+vX+YyVdap09l0lq2f968fknnqPOPZcutcwfP0mpXVLub8QyQID1+C6dQerk8LGeOoPpHpaLzx+coxw5/1M6lGMd1knneFobZz+jmz9+NNdhzZ2jpEtXu5Tx4WNduoyOfN2ND48dZfHr1Em6jelxk/3jZ/fzj03OdRnXLnuZ3o9rl0e1y8b+/QtdHtYu52qXUTfJg9rlwqTLxUmX+3tdLr/b5ct0eSNd/iRdfrd0a/tv7QRGAGAISnmQWu8s/lHtpTOYLJ6jh85gocPqqTPIaHLiOZbpDCZ1cnhcT53BqE7ybe1yvuuG1hnQnpKf7P6nlPztdTfkTJim+Zqkzv5Qze5Lnf2xq8nsfvpHrB5/LHX2B3H6/cK56gmPlcOfs3iuOkvlR85f5n7Owbnq7I/6089/8J7qCT9zrt119ns4+Fknnb8c/pzF9/mY9zQ7fpSa7sjv8dh7qnX2CeLwsf1j5s8/mh3bjfe/Pjx/Tc2oLr6nWmtG6VLHc4+N/zy/den/reI/MYC+bCT191LzxrE/oGU0/cM6/wf6cX9Auzr9g7j/x/JJf0APvh/PznX0mDp97Tg1kzq97zamj49TM0mXjTq9339tN3eOUe1Sz9V0qRnPnjt6/6h2OV+n9xdqzeRizcPa5YXUfFu7XKzT+0e15sKky8Na80pXc3+vy19Pai5d6fJNat5Ily9T809mnRkAAAAAAAAAAAAAAAAAAAAAAAAAAAAAAAAAAAAAAAAAAAAAAAAAAAAAAGtV8pPdP07J9dRaU9KlpktSk3QpZfr19LHp16V2qTk8tqSmlm72/ZFz1OnjB+eYne/osaXW2bnmHi9z7dg/R539vPljy1w75h+vJ7+X/ecPjq1H3kvtUkaL7Rulppt7L/uv68ZdRnO/jy5dxnPH1tSMajc9LjVdFo+v9fCxLjWjTI8dp2Yyd+yodpmky0adPt7VmvG5LqPZOfbSZTw7x7h2eVS7nK81j2qXjRe6TFJzrnb5tna5WGu+rV0e1ZoLky4XJ10edjV3H3W5dKXLN6l5I13+JF1+JzWl1DX8dwnAc1byk6//W0r5G+tuCKdZPSEIlhOCYD0hCJYjIS7dwfmOBr5jIS5daj0hCJa5dhwJfAvnKCeE2rn3cnDsSe9lduyxUFsW30tJTZd/md969evV/3sBeHYb624AQ1BG07uMFx8+el9OfvzYa8qR7590f8JJjj60f86nnWv+m6f+3Mec86R2jOu/SvJ8A8CP772eWsZ5IYcjMpM6/Xpv9tjF+vjnHs2+vzR3zKNu+vXD2WOvdIfPPZx9/e3s/q8n0/s3rhwe82B27m9m95tzbbs/+/rL2f1fzO5/Z+4Yo0uwVgIADMG4+7OUXMvkhOf2/y9+dMJzo9n9hVlaeVSOP3l+9u2DJ5z70v4xd48fs//cz094/f5zf3d2//Hcc7d2jx9fZ2GkZD4c1Nk/68L388ed+FxZfOx7v/7IY7Ueb9Px1x9/bv6cB8eV4+/zaBue+Ppjx8y3b8nfYXnC7+AJ7/OJv8P6fV5/0nuYe5/lCb+DJ/x+Hvc7KHW51y+8h/KE38H3+h2e1L4lf4fl2PsUAIDTo5THj7mcNArzXZ7r7fVPOOi7vL6XNjzpue9wgrX9DsvTj1nb7/CEEcmV/vynPVe+wzHf4+fPHTd68lHAKWG4HOiVAADLGn3n3A1waggAMATFCADQLwEAABokAMAQLM5AB1iaAADLevRdpl8DnC4CAAyDEQCgVwIAADRIAIAhsAoA6JkAAMtSBwAYIAEAABokAMAwuAQA9EoAAIAGCQCwrFXMAahGAIB+CQAA0JpaqwAAw2AEAOiVAAAADRIAYFmr2AtAISCgZwIAADRIAIAhsAoA6JkAAAANEgBgEIoRAKBXAgAsy2ZAwAAJADAEVgEAPRMAAKBBAgAMgxEAoFcCACzLHABggAQAAGiQAABDoBAQ0DMBAABaU2I7YFhaWcFmQCYBAj0TAACgQQIADIFCQEDPBAAAaJAAAMvaW0EdAKsAgJ4JAADQIAEAhsEIANArAQAAGiQAwLJWsReAVQBAzwQAAGiQAACDUI0AAL0SAACgQQIADIE6AEDPBABYVnm0is2AAHolAMAwGAEA+mQ7YABokQAAAA0SAGBZq9gMSCEgoGcCAAA0SACAIbAMEOiZAAAADRIAYFmjsoo6AEYAgF4JAADQIAEAhsAqAKBnAgAANEgAgGWVFdQBMAcA6JkAAAANEgBgCGoxAgD0SgAAgAYJALCskTkAwMBU2wEDQJMEABgCdQCAngkAANAgAQCGwG6AQM8EAFjW3ko2AwLolQAAAA0SAGAYXAIAeiUAAECDBABY1ioKAVkGCPRMAACABgkAMAxGAIBeCQAA0CABAJZVVjAHQCEgoGcCAAA0SACAYTACAPTJdsAA0CIBAJY1WcFeAKUaAQB6JQAAQIMEABgCqwCAngkAANAgAQCWtYo6AFYBAD0TAACgQQIAADRIAIAhsB0w0DMBAAAaJADAskwCBAZIAACABgkAMAQKAQE9EwAAoEECACxrZA4AMDDFdsAA0CQBAIZAHQCgZwIAADRIAIBl7ZXnPwegFiMAQK8EAABokAAAw2AEAOiVAAAADRIAYFmrqANgFQDQMwEAABokAMAwGAEAeiUAAECDBABYVlnJXgAAvRIAYAhsBwz0TAAAgAYJADAMRgCA/lTbAQNAkwQAWNZEISBgeAQAAGiQAABDYBUA0DMBAAAaJADAskpZRSEgIwBArwQAAGiQAABDUKoRAKBXAgAANEgAgGWVPXMAgMERAACgQQIADIE6AEDPBAAAaJAAAMsqK9gLwBwAoGcCAAC0x3bAANAiAQCGwHbAQM8EAFjWZCVzAAB6JQDAEFgGCPRMAACABgkAMAxGAIBeCQAA0CABAJY1WsEkQKsAgJ4JAADQIAEABqEYAQB6JQAAQIMEAFhWKc9/DoA6AEDPBAAAaJAAAMNgBADolQAAAK0pxXbAsLRVbAakDgDQMwEAABokAABAgwQAGALLAIGeCQCwrLKCOQAAPRMAYBiMAAC9EgAAoEECAAyBZYBAzwQAWJY5AMAACQAwDEYAgF4JAADQIAEAhkAdAKBnAgAANEgAgGWVsoJJgNUIANArAQAA2mM7YBgEdQCAngkAANAgAQCW1a2gEJBVAEDPBAAAaJAAAMNgBADolQAAAA0SAGBZNgMCBkgAgCGwDBDomQAAAA0SAGAYjAAAvRIAYFnmAAADJADAECgEBPRMAACABgkAMAxGAIBeCQCwrIk5AMDwCAAwBKUYAQD6U1MFAABokAAAQ2AVANAzAQCWVYo5AMDgbCTlnybd30zKVpK5W3l9zW0DDhkBAHq1kX/06mdJPjv2zK1fvJyM98PAkXBQryTF6AEADNTGY5/50ev3kvz57LboZj2fy/eup2YrqfuhYHpfcz2lvPC8GgxNshsg0LPHB4An+e3yMMl/n90W1Vry8VfvJaMTRg7KdpJXn725AEAfni0APMl0vfL/nd3+7bHnf7r7WrocCQazW63vmlDF4KxmMyAjAECv+g8AT/MPXr2T5E6SPzv23M2fXcylV68ne/OjB9uZXlq4llLOrbaxAHA2rT4APMlvf/AgyX+d3RbdrONc3r0ynXdw9NJCtpJcXmVTAWDITlcAeJLfLpMk/3t2+zfHnr91743pRMSDSYnTkYPp3IO3VthS6F9NteMA0KfhBICn+dHLXyb5MsmfHnvuk89fyuTCSZMSt5J6NSnj1TaWM2U1cwAAenV2AsCT/OY7v0zyX2a3RbfrRh7cvZr5+QaHt80kL66uofBYJgECvWojADzJb5S9JP9zdvujY89//M07qQ8fUxBJtUQAhkkAeJp/eOnzJJ8n+XfHnvv0zit5VDZTyvZ0cuJCtcT3VUukNwoBAf2qAsAy/v5rd/Ns1RI3U8qFFbeW56UzBwAYHgHgeXlatcRP7ryfOtpaHDk4uMSgWiKLrAIAeiYArMO0WuL/md3+5Njzj6uWWLOd1HdUSwRgWQLAafS0aomXX9pMylZqORoQVEs8s2qNIQCgRwLA0EyrJf7F7LbocdUSa7ZTshnVEp+PMtEzA4MjAJwlT6uW+Mn9N9N1W4cTE+v8/APVEk8zqwCAngkALfnNyz9P8vMk//7Yc7e/uJQH5zYPRg5qtg++LvUD1RIBzhYBgKnfeOubPK5a4mf1XH5x92pqto7XO1AtcUWMAAC9EgB4ur9THiX5H7PbcfPVEmtZLKdcyg9X1s51sRcAMEACAMt7WrXEvTKdlKha4rNTBwDomQDA8zWtlvgfZ7dFt+qFlHvXsr8JU9fNB4TrqiUCPD8CAOvzo/JtHlct8cM6yq/deU+1RIDnQwDgdPrd0uVp1RKTw02YFionnslqiSYBAr0SABimabXE/zC7LVp1tcSJq/PA8AgAnD1Pq5b4yu4H6coJIwfZSsmllbb1u1IICOhTsR0wrZlWS/xfs9sfH3v+cdUSa7ZTypsrbi3AcyMAwLynVUv89tzhZYVuf1Jiuffc22UZINAzAQC+q2m1xP88uwEMmiIsMAzmAAC9EgBgCEoRAIBeuaoIQ1BrycdfvZcy3k6X7aRsp2R7umvjKV69AJxW9wUAOAs++ubtjB5up5RpQCizkFCznZJX1t084NQRAODM+/G917NRt5Nsp3bT+/3RgxZ2awROIgBA037/61dzfnY5oWQ2ejALCylvrbt5wHMjAACPcfuLS/nl+e2M5i4nHIwe1HfP4H4L0BIBAHgGN392MRdf2spoNDcZcTaSkHolKVYYwekmAAA9u1UvZHT/eiZ1O2U252B/9CC5mlIUIIP1EwCAFbpdN/Lt3WvZy+G8g1r3Ly1cT8r5dTcRGiEAAKfEzTrO5d0ryfxSxv3Rg7qVUl5YdxPhDBEAgAHYL4TUjXemIwdl/rLCVkpeWncTYVBq7gkAwPB9/M07ycPtdGVu5KDsX1p4ed3Ng1NHAADOvFv33kip25lkOimxzE1KLOW1dTcP1kIAAJr20e4PMpovgpTtpO5XSXxz3c2D50YAAHiMP/jycs5vHO6vsFBCOe+uu3mwFAEA4Bn8+C9fzPjiVspszsH83IPU9xVC4tQTAAB6dqteSHd/M6O9IyWUy3ZSryZlvO4mggAAsEqf1XP5/N616byDOl8EaTs111PKuXU3kUYIAACnxM06ziu7H2SvHC2CtJ1kUyEkeiUAAAxArSWf3Hk/e6PtjMrOws6MyVaSF9fcQoZGAAA4A/7oy3fzcLydUVksgjStkqgQEscJAABn3Cf338yjbjtlslhCuZTtJD9Yd/NYEwEAoGE/3X0tyaxK4lwRpGlAeGPdzeM5EgAAONGtX7ycMt7OpMxt3TwLCaW8s+7msSQBAIDv7ZPPX8rkwtZBlcRS5lctvJ9S9C2nnQAAQK9u1xfy4P5myt60QuJBnYOynVI/UAjplKi5KwAAsBqf1XP54t71g0sKXTdf8+CaQkgrJAAAcCrcrOO8ePdqRvNFkPYrJmYzpVxYdxPPFAEAgFPvwzrKr3z9fsZlfynjzuHmS9mMQkjfnwAAwKDVWvLRV+9mPJrbfKnMV0m8vO4mnkoCAABn2h/efysbdTtl77BCYpmFhOTVdTdvbQQAAJr16d0f5ttsZzTblXF+d8aU19fdvOdKAACAE3x655V8OzpSBGk2KTHl7XU3b2kCAAB8T7e/uJRvz21NqySWxVULqe8NohCSAAAAPbr5s4u5/NLmQTjYL4I0HT34ICmjdTcxiQAAACtzs57P5XvXk2ynmxwdPbiWUjZW1hYBAABOgdt1Iw/uXp1WSFwogrSdks2knO/15wkAAHDKfVhH+dWvr2Q0u6zQHUxM3JmGg1z83ucUAABgwGot+fir91LGs5GDMr9qYSsll05+nQAAAGfXR9+8ndHDxZGDaRGk1/8/dumeYWRrOzwAAAAASUVORK5CYII=" parent="1" vertex="1">
          <mxGeometry x="970" y="175" width="10" height="10" as="geometry" />
        </mxCell>
        <mxCell id="hfclSQvydH0OEV2nobqS-1" value="" style="shape=image;verticalLabelPosition=bottom;verticalAlign=top;imageAspect=0;aspect=fixed;image=data:image/png,iVBORw0KGgoAAAANSUhEUgAAAgAAAAIACAYAAAD0eNT6AAAABHNCSVQICAgIfAhkiAAAAAlwSFlzAAA3XQAAN10BGYBGXQAAABl0RVh0U29mdHdhcmUAd3d3Lmlua3NjYXBlLm9yZ5vuPBoAACAASURBVHic7d17mF11fe/x92/PJAHCVU0koKggeClCZjIVRaulWrUVUSrFXo6n1cJJk5kQkFK10EaOVrSIODATGoulVVs5qYqC1mqPxNaWok1mEkRtAbX1wiVBLkpISGb29/zBcIqWy57J3vu39vq9X88zD8+Qdfmsvfes32evvddaCakixjbxktRgBfCSCKYTbGk2WLdqKZ/JnU2arUsnObkBKwiOIREBX6bJ2Mgy/jF3Ngkg5Q4gAVw6yZkNuPgR/zG4eHiQt3Q5kjRn45NcALztkf6tCWetGuADXY4k/TcWAGU3Psmr4bHf5UfwjpFBzu9SJGnOxidYTXrcAf7E4QE+25VA0qNo5A4gAWc93gQpcd74BD/bjTDSXI1v4jmReE8Lkz7ua17qNAuAsgsYamGyfhIfvmIDe3U8kDQHazbQHw0+knj812gEz+9GJumxWACUXQqixUmfff8BXNDRMNIcLT6Q8xIsa2niRF+H40iPywKgKtjQ6oQBq8cnOaGTYaTZunQTQ8C5Lc8Qrb/mpU6xACi7CMZbnTYlEnDF6PXs38FIUsuu2MBejQYfAfpbnSdgtIORpJZYAJTdyDK+CFw5i1me1jff06hUDdsP5D3As2cxy5WrBvn7TuWRWmUBUCWkPlYCt7Y8feJNazdxUgcjSY9rfJITCM6YxSy3zp/HcMcCSbNgAVAlrDyGu1Nw2mzmicQH123kSZ3KJD2W0evZP+AvZj6WakkKTjv9aO7qZC6pVRYAVcbKQT4XwQdbniHx5Kk+/rSDkaRH1T+f0QSHtTp9BB9cOcjnOplJmg0LgKplPmdH8O1ZzPH68Un+R8fySI9gbILXkvjtVqeP4NvM5+wORpJmzUsBq3LWbuHnYpovkVosqME9U308b/WxfL/D0SRGJ1jUBzemxOKWZgiaqY+fX3ksX+5wNGlWPAKgyll5LF+OxPtbniFxYH+TP4+w0Krz+mFdy4M/EIn3O/iriiwAqqTphZxH8PVZzPKLaydZ0bFAEjA+wf8kcXLLMwRfn17IeR2MJM2Z75hUWZduYTA1uT7BvFamD7i/L1i6YpCbO51N5Rn/Gk+NKb6W4IBWpg/YHQ1esOpYJjqdTZoLjwCoslYdywTBO1udPsE+zcRfrl/vddbVXhEkprii1cH/wZl4p4O/qswCoErbdi8XBPzrLGZ54bZn8vsdC6QirZ1gBHhZq9MH/Ou2e71xlarNjwBUeZds5Nl9fUwAe7cyfQS7mvD8MwbZ0uFoKsDaLTwrmkzS4usP2DE9zeAZQ/xbJ3NJe8ojAKq8M4b4N4K3tzp9SsxvJD68/kbmdzKX6m/9evqa03yY1gd/CN7u4K9eYAFQT1g5wCUxi1uoJjhm227O72Qm1d/WZ/IHKfH8VqePYMPKAS7pZCapXSwA6gkpEQRvAn7U6jwB54xPcHwHY6nGLt3CIIk/nMUsPyJ4U0pEx0JJbWQBUM8YWcZ/Ame2On2CPhJ/eeFmFnYwlmpo9CYWNKb5cKunoM44c+Y1KvUEC4B6yvAAV0RwzSxmeeY+wYUdC6Ra6t/OH5P4mVanj+Ca4QGu6GQmqd0sAOo5U/2cHnDnLGZZMT7JKzoWSLUytomXEJzV6vQBd071c3onM0mdYAFQzznzGO6IJr87m3ki+POLJzmwU5lUD5d/k/1S4i9avhEVEE1+98xjuKOTuaROsACoJ61axici+Gir06fEofODsU5mUu97YCfvJ/GMVqeP4KOrlvGJTmaSOsULAalnXTzJgfOCG1Liqa3OE8Gvjgzy8U7m6oY1QeOQTTxlqsGTSezbTCxkmn0biYXAvgELSeybYCEx8zszv6eZ34N9AUjcl2A7wX0B22Hm9zTze8z8Dvc1g+30cV8jHvz//U3uuHUZ3z8/0cz4cLTF+CSvBj7T6vQRfG9ek+ctH+LeDsaSOsYCoJ42tomXkfj7lFp7LQfcOdXH0b1wyHbdRvaZ7ufwZpMjSBxOPPjfFBwR8PSUqnGhowh2JfiPSHyL4NvM/LfR4Ft9U3x7+RD35874eC79Ck9szOdG4OBWpo8gCH5xZBlf7HA0qWMsAOp545OMAme0On0E14wMclIHI7VsdIJF/XBkPDS4J44gOJzEEbQ4GPWA2wm+ReLbEQ+Wg5T41hTcvHqQbbnDAYxNsj7Br85ilkuGB1jdsUBSF1gA1PMuuo69F+zFZEo8axazvbnbp22tCRpPnOR5DTiemZ+UOLybGaomgm8D1wHXNeG6Hw7wtW5/nLB2gt+IxF+1On0E//7ATgbOPp4dncwldZoFQLUwPsHPkrgO6G9xlh/1T/O85UN8t1OZ1m3kgF39vCDFzIAfHJcS+3VqfXUQwY9JfAW4LhLXzZ/i+k5+xn7ZJIdOB19LiYNanGWK4PjhwVndoVKqJAuAamN8kncAa1qdPoJrhwd4ebsu3Tq2iWemxPEBLwKOT/Dc2ZxOpkcQNAO+AVyX4J8juG5kGbe0a/FjE3w+pVldI+L84QHe0a71SzlZAFQbazbQv/hA/gUYanmmJmcML+PSuaxv9Hr2nzefEyNxMvBSYNFclqNZ2wb8Qwqu2r2Lz6x+Qev3h3i4sQlWpMTaWcyyces9vPD8E5iay/qkqrEAqFbGN/GcaDCRYK8WZ9nRTCxdtZSbWpl47Q0cxBQnBZwC/CKJBXNPqz0WPAD8fYKP08/VK4/h7lZmmzlas5nU2n0iAnb2BctWDPKNPcorVYgFQLUzvpm3EFzU8gzBVxbdwotOPZXpR/rn0QkW9SVel4LXR+IXZnmDGHVJwO4UXBuJT0wHn3q0MwzWr6dv25F8GXjhLBZ+zvAg72tXVqkKLACqnTVBY/FmNgAvaXWeCM4dGeTdD/2+biNLpvv4lWbwehIvSdDXkbDqiIBpgn9sJD7RN80nlw9x20P/NjbB21Liglks7J+2DvDSOlzsSHo4C4Bq6ZLNPKOvyQ2kmavdPY4IdjXgddOJZzWCU+LBU/T8+6iBCCLBdc3Ex1OTfyPx6ZYvohRsn2py7OohvtXhmFLXuYNTbY1NcnqCD+bOoR4WDA8PzuqLglLPsACo1sYm+dsEv5Q7h3pPwP8dXsor2nWaqFQ1nqOsWosmp0W09s1w6WF+lPp5s4O/6swCoFpbtYxbG3BW7hzqLQnOGX4e38udQ+okPwJQbV10HXvP35vlDTgHOCR3HvWQ4A7gffc3uOycpWzPHUfqBAuAamfsRvZNu1kZwdkpsTh3HvWugDsJLp7exdhcrzgoVZUFQLWxbiMH7O5jVYIzgSfmzqP6iODulLgk9THa6tUGpaqzAKjnXTzJgfPhLQFnJDggdx7V2o8CxhfM432nH81ducNIe8ICoJ61biPzphK/S4M1+I5fXRTB3STeOW+aseVD7M6dR5oLC4B60tgEr03wJySOyp1FRbulCb+/aoCrcgeRZssCoJ5y6RYGG9NcROLnc2eRHuYfU5O3rFzGptxBpFZZANQTLpvk0Gl4N8EbvUa/qiiCIPGR6Qbnrj6W7+fOIz0ed6SqtDVBY9EkIwne3eq926Wsgu3AuVsHuNQ7CKrKLACqrMsmeG4zcTmzuW+7VBEB1wOnjQzw9dxZpEdiAVDlrNvIvN0N3gac1/JtW6UKimBXSlywaB7vPvVoduXOIz2cBUCVMj7BzwIfIvG83Fmktgm+npqctnKI63NHkR5iAVAljN7Egr7tvAs4K0Ff7jxS2wXNSFz6wA7efvbx7MgdR7IAKLu1W3hWTHMliaW5s0idFsGNffCGFYN8I3cWlc3bASur8UneFNNscvBXKVLi6GZi46UTnJY7i8rmEQBlMXo9+/cv4E+BX8+dRcolgv8zr8ny5UPcmzuLymMBUNeNT/CzAVemxOG5s0jZBd9pJH5txQBfzR1FZfEjAHXV2ARnR+KfHfylGYlnTMM/jU1wdu4oKotHANQVozexoH87fwa8MXcWqaoi+Oj0vpy2+igeyJ1F9WcBUMeNTrCoL/GpBMfnziL1gH/Z3cfJZx7DHbmDqN4sAOqotZs5utnkmpR4eu4sUq8I+G4zOOmMQbbkzqL68jsA6pjxSV7dbHKdg780OwkO64N/HpvgtbmzqL4sAOqI8c28heDqlNgvdxapJz1498urxiZ4W+4oqic/AlDbjU/wfhJn5c4h1UUE48MDrEqJyJ1F9WEBUNusCRqLJ/lTEqfnziLVTvAXi27htFNPZTp3FNWDBUBtsWYD/YsP5MN4ZT+pYwL+Zt40v7l8iN25s6j3WQC0x2bu5Lc+wUm5s0h1F8FnF97LKW86gZ25s6i3WQC0Ry7czMJ9gk8DL8udRSpFBNfuaHDSOUvZnjuLepcFQHN2+TfZb+dO/s4L/EhZ/MuCvXjlac/hx7mDqDdZADQnozexoP8+/o7Ez+fOsiciuDvBrSRuJZgHHAIcQmLf3NnURsF9wK08+FzvJjgk4JCUOCh3tD0SfGlqX17lpYM1FxYAzdr69fRtfSYfT4nX5c4ya8EDJP6uGXyG4G9XLePWR5rs0s0c1WhyEvBaEi/uckrtoQgiJa5twmf6g8+uGOTmR5ruskkObTZ5TTQ4KcEvAv1djrrHIvjU4ls4xbMDNFsWAM3a+AQfIvHm3DlmI2A6BR/pb7Jm+RDfnc28azexLBq8C3hVh+KpjSL4bAr+YHgZN8xmvtGNHNHfxxqC3yT12EXSgj8fHuR3csdQb7EAaFbGJ/gTEufkzjEbATenJqfMdkD4aeOTvAL4a+CJ7UmmNvsh8BvDA3xhTxZyyQTHNhJ/k+DINuXqjuDC4UF+P3cM9Q4LgFo2PsnvA+/NnWNWgs/0N/kfy4e4tx2Lu2ySpzfhU8Cx7Vie2mZLA163YoD/aMfC1m3kgKkGHyVxYjuW10VvHR7gT3KHUG+wAKgl45O8Cfjz3Dlm6dNbl/Ir5yea7Vzo6PXs3z+ffyLxvHYuV3MUfG1qFy9e/QJ+1M7FrgkaizfzSei5G/K8eXiAK3KHUPVZAPS4xic4PmBDSszPnaVlweb7G7y4U+dJr9vIYVN9fAU4uBPLV8tu75/muNl+r6NVF25m4T5N/onE0k4svxMi2JXghOFBrsudRdVmAdBjunQThzQabKKXBrrggekGzzljKd/p5GrWbuYXIvhiJ9ehx5YSL1u5lGs7uY5LNvOMvibfJLGgk+tps9ubTZY92lkuEng7YD2G0ZtYkBJX0UuDPxAw2unBH2DlUq4NuLrT69EjC7i604M/wBlL+U7AaKfX02YHNxKfHL2pp0qLuswCoEfVdx+XpcTzc+eYjQjumtfk3d1aX3OatxLt/Y6BWhA0m9O8tVurm9fk3RHc1a31tUXiuL77uCx3DFWXBUCPaGySkZR4U+4cc/Dxdn3jvxVnDPFv4GetGVw389h3xcxr6uPdWl+7pMSbxiYZyZ1D1WQB0H8zPsFLE1ycO8dcpMQnur3OePC0QHVRjsc8x2urHRJcPD7BS3PnUPVYAPQT1t7AQQF/RQ9eEpVg+9Z7Ov+Z8E9rNvlst9dZuhyP+dZ7uJboybvv9Qf81dobevy+B2o7C4B+QkwznhKH5s4xF5H47vknMNX19e7f+S8c6ifleMzPP4GpSJ053bDTUuLQmGY8dw5ViwVA/9/4Zt4A/HruHHvgBzlWuvooHgi4M8e6SxRwZ8a732V5jbXJr8/8jUuABUAz1m1kSTRZmzvHnkiwLePqc667NNke68yvsT0WTdau28iS3DlUDRYAATDVx5+nxBNy59gTERlv0pNz3aXJ+FhnfY21QUo8Yaqv5y7prQ6xAIjxTfwuNbjVbSLPdxfWbWQesCjHugu1aOYx77pcr7E2e9XM37wKZwEo3NgmnkbifblztEPAYevX09ft9TYbPD0lL6vdLSmRmg2e3u31rl9PX8Bh3V5vRyTeN7aJp+WOobwsAIVLDS4isTB3jnZIif3uOJKf6/Z6p+GXur3O0uV4zO84kp9Lif26vd6OSCxMjXoUf82dBaBgY5t4GfD63DnaKQWnZFjt6zKss3Rdf8wzvbY66ZTxSU7IHUL5eNiyUGs20L/oQLYkeG7uLO0UwdYdDQ7v1G2Af9olm3lGI7g50f2PHkoWMN1MHNmNmz7Bg7cF3rvJt1NicTfW1y0R3Lj4FpaeeirTubOo+zwCUKgnHchI3QZ/gJRYvE9wTrfW12hygYN/9yXoazS5oFvr2yc4p26DP0BKHL3tCFbmzqE8PAJQoLWbWdwMbkpwQO4sHRFsbwZHdfpe6Gs38oLo4186uQ49tjTNC1cOcX0n13HpJg5pJG6qy3dlfloEd89rctTyIS9mVRqPABQoHnzXWs/BHyCxsJFYv/5G5ndqFWs3s7jZ4GOdWr5a02zwsbWbO/fOfP2NzG8k1td18AdIiYOmGrwrdw51nwWgMGs3c3TQk7f5nZ3Ei7bu5oOdWPToTSyI4FMpdf9UNP2klHh6BJ8avYkFnVj+1t18kMSLOrHsijl9fBPPyR1C3WUBKEyzyXmlnLOe4LfGJ/hQOweHdRt5Ut99fA54YbuWqT32wr77+Ny6jTypXQscvYkF4xN8KMFvtWuZlZZokDg3dwx1VxEDgR60dgvPimm+QSqr+AX867xpTlk+tGd3clu7mYEIrgIvoFJR/5kSJ69cyuSeLGTdRg7b3cfHE/xsu4L1goDpvuA5Kwa5OXcWdYcFoCDjk3wYeGPuHDkE3J/gkl3w3rMGuGc2845u4Sl9Td4B/Lbf+K+2gGngL6YbvGP1sXx/NvNePMmB8+GtAWck2KdDESst4C9HBvjt3DnUHRaAQoxu5Ii+Pv699AEsgrsTrG82+Mz8Ka5dPsT9jzTd2hs4aHo3r2wkTozE6xPs1e2smruAnSn4RDP4TN88Pr/yGO5+pOnWbWSfXf38QqPJiQGnpsRB3c5aMVOpj2etPIZv5w6izrMAFGJskssT/E7uHJUSPBCJbye4lQd/5gGHAIcEPKP0slQXAdMJvsN/Pc+7efA5PiQFh5M68wXCHnb58ACn5w6hzrMAFGBsE0+jwc2JPHdQk9Q7AnbT5MiRZfxn7izqrKK+DFaqlDjTwV9SKxLMS4kzc+dQ53kEoOZGb2JB/3Z+ADwxdxZJPeOHUws5dPVRPJA7iDrHIwA113cfv4KDv6TZeeLMvkM1ZgGoP7/MI2ku3HfUnB8B1NjYJp5J4qZSrvwnqX0iCIKjRpZxS+4s6gyPANRYavA7Dv6S5iIlUmp46nCdOTjU1JoN9C8+kO8BB+fOIqln3b71Hp56/glM5Q6i9vMIQE0tPohfwsFf0p45eGZfohqyANRUNDk5dwZJNdDkdbkjqDMsADW0JmikxIm5c0iqhVevCceKOvJJraEnbuaFwKLcOSTVQOLJT97E83PHUPtZAGqoL3ht7gyS6qPZx0m5M6j9LAD1ZAGQ1DYpLAB1ZAGomUs28mwSR+XOIalGEj+z9gYOzx1D7WUBqJk+D9VJ6oCY4jW5M6i9LAD189LcASTVkvuWmrEA1Ezgt3UltV8kXpA7g9rLAlAjoxs5IsGTcueQVD8JlqzbyGG5c6h9LAA1Mq/BcbkzSKqv6T73MXViAaiRZvLwv6TOaYYfA9SJBaBebOeSOsfvAdSKtwOuifU3Mn/bLn5EYkHuLJLqKWDnvGn2Xz7E7txZtOc8AlATd07xMw7+kjopwV7T/RydO4fawwJQE80mR+TOIKn+3NfUhwWgLhLPyB1BUgHc19SGBaAmEv5RSuo89zX1YQGoD/8oJXWD+5qasADURIR/lJI6z31NfVgAaiCCROJpuXNIKkDiaRGeQl4HFoAaGJtgSYK9cueQVH8J9hqbYEnuHNpzFoAa6MM/Rknd4z6nHiwANdCEhbkzSCqH+5x6sADUQWLf3BEkFcR9Ti1YAGqgkWzjkrrHfU49WABqwMNxkrrJfU49WABqoOEfo6Qucp9TDxaAGgj/GCV1kfucerAA1IB/jJK6yX1OPfTnDqA9t/AeLrjnQC7OnUNSGQ68h525M0iSJEmSJEmSJEmSJEmSJEmSJEmSJEmSJEmSJEmSJEmSJEmSJEmSJEmSJEmSJEmSJEmSJEmSJM1Nyh0gh/U3Mv/unTzxvl3cc/bx7MidZ0+tvYGD0jQH5M4hqQzRx70rj+Hu3Dn21BUb2GvXfhy0c3/uWn0UD+TO0221LQDrNjJvup+fawYvJ3gqiYNTsCRgSUo84aHpAu5NcFsEt6XE7QE/SPClnTu4tlfKwdgE70mJt+bOIakMEbx3ZJC35c7Riis2sNeOAzgh4IRIHEqw5KHxgMSBD00XwV0kbn/YePD9FHyxr8k/LB9id85t6JT+3AHa6dKv8MTUzy+nxIm7E69MwQEJ/qvmpP/eeBIcAByQEs9+2KS/t2Bv7h+b4Iskrpk3zWeWD3FblzZDkrQH1m1kya4Gr24kTtwOv5hgH5jZvz9sPHi4mTeGTwCem2b+LRJvm+rjR2OTfJ4m18QUf7vqOH7Ypc3ouFoUgEs3MdRo8M548Inugz0/tJFgHxKvAV6zu0GMT/Jlgj8aHuQf9jyxJKndxid4KYn/vTv4uUb6yfF+D+yf4Fdp8KvMZ3p8kr9vNvnDVcvYuOeLzqunC8DaLTwrmrwrgtcDqVOfZ6QHX0gvIfGl8Qk+nxq8feVSJju0OknSLKzdzEA0uYDEK6Fzg8HMG8xXpcQrxyf5RGpw3spj+ffOrK3zGrkDzMXoFp4yPsmfNZt8HThlZoDujsQrm002jU1w5WUTHNm19UqSfsJlExw5NsGVzSabHhr8u2FmzDml2eTr45P82egWntKtdbdTzxWA8Ule3dfkRuC0hw73d1tKpJR4QzOxZWwTb8yRQZJKNraJNzYTW1LiDV19E/gwM2PQaX1Nbhyf5NU5MuyJnikAEaSxSc4juHrmi3tVsHdq8OGxST6wZkNvf5wiSb1gzQb6xyb5QGrwYWDv3Hlg5svkwdVjk5wX0Ttn1/VEAbj8m+y3dpJPJHgnqXqZE6xedABfGJ1gUe4sklRXoxMsWnQAX0iwOneW/ybRSPDOtZN84vJvsl/uOK2o3GD600a38JSdO7mexMm5szyWlDihL7Hxko0Pnk4oSWqfSzby7L7ExpQ4IXeWx5Q4eedOru+F7wVUugBcuJmF/dNck+C5ubO0IsFhjQafXbeRJ+XOIkl1sW4jT2o0+GyCw3JnaUWC5/ZPc82Fm1mYO8tjqWwBWBM09gn+isTS3FlmIyUOn2pw1fobmZ87iyT1uvU3Mn+qwVUpcXjuLLOSWLpP8FdrorrjbGWDLZ7kPcBrc+eYk8SLt+3m8twxJKnXbdvN5SRenDvHHL12ZiyrpEoWgLHNvJnEOblz7KE3jk3wB7lDSFKvmtmH9vap1olzxjbz5twxHknlCsD413hqCsZy52iHBO8c38QxuXNIUq8Z38QxCd6ZO0c7pGBs/Gs8NXeOn1a5AhC7eTcVObdzjyUa0eCi3DEkqddEg4uqeNr3HO09M7ZVSqUe3LWbWAb8Zu4c7ZTg5WMT/HLuHJLUK8Ym+OUEL8+do81+c2aMq4xKFYBo8P5cl3TsqMSF69fnuWyxJPWS9evpI3Fh7hztlhIpGrw/d46Hq0wBGJ/kdcBLcufohATP3XYEp+fOIUlVt+0ITu+Va7/MwUtmxrpKqEwBCDgzd4ZOilTv7ZOkdqj7vrJKY10lCsDMNfR79TzPlqTEsy6bqG2rlaQ9dtkEz02JZ+XO0WEvrsp9YypRAPrhpFy39u2mZsXvZyBJOZWwj0zQ1w8n5c4BFSkAJH4ld4SuiEK2U5LmopR9ZEXGvOwF4PJvsh/By3Ln6IrE4NgmnpY7hiRVzdgmnkZiMHeOrgheVoVbBmcvADvu5xUkFuTO0S2NBifmziBJVVPUvjGxYMf9vCJ3jOwFICWOzJ2hm5qUtb2S1IrS9o1VGPvyFwA4NHeGbipteyWpFaXtG6uwvdkLQMAhuTN0U2nbK0mtKG3fWIXtzV4AqtCCuqm07ZWkVpS2b6zC9mYvAFTgQeimgEMiani/A0maowhSFd4Rd1n2sS9/AUgcnDtCNyWYN/ZVnpA7hyRVxdhXeUKCeblzdFUFxr78BQD6cwfotuJe6JL0GArdJ2Yf+6pQACRJUpdZACRJKpAFQJKkAlkAJEkqkAVAkqQCWQAkSSqQBUCSpAJZACRJKpAFQJKkAlkAJEkqkAVAkqQCWQAkSSqQBUCSpAJZACRJKpAFQJKkAlkAJEkqkAVAkqQCWQAkSSqQBUCSpAJZACRJKpAFQJKkAlkAJEkqkAVAkqQCWQAkSSqQBUCSpAJZACRJKpAFQJKkAlkAJEkqkAVAkqQCWQAkSSqQBUCSpAJZACRJKpAFQJKkAlkAJEkqkAVAkqQCWQAkSSqQBUCSpAJZACRJKpAFQJKkAlkAJEkqkAVAkqQCWQAkSSqQBUCSpAJZACRJKpAFQJKkAlkAJEkqkAVAkqQCWQAkSSqQBUCSpAJZACRJKpAFQJKkAlkAJEkqkAVAkqQCWQAkSSqQBUCSpAJZACRJKpAFQJKkAlkAJEkqkAVAkqQCWQAkSSqQBUCSpAJZACRJKpAFQJKkAlkAJEkqkAVAkqQCWQAkSSqQBUCSpAJZACRJKpAFQJKkAlkAJEkqkAVAkqQCWQAkSSqQBUCSpAJZACRJKpAFQJKkAlkAJEkqkAVAkqQCWQAkSSqQBUCSpAJZACRJKpAFQJKkAlkAJEkqkAVAkqQCWQAkSSqQBUCSpAJZACRJKpAFQJKkAlkAJEkqkAVAkqQCWQAkSSqQBUCSpAJZACRJKpAFQJKkAlkAJEkqkAVAkqQCWQAkSSqQBUCSpAJZACRJKpAFQJKkAlkAJEkqkAVAkqQCWQAkSSqQBUCSpAJZACRJKpAFQJKkAlkAJEkqkAVAkqQCWQAkSSqQBUCSpAJZACRJKpAFQJKkAlkAJEkqkAVAkqQCWQAkSSqQBUCSpAJZACRJKpAFPl34+AAAENlJREFUQJKkAlkAJEkqkAVAkqQCWQAkSSqQBUCSpAJZACRJKpAFQJKkAlkAJEkqkAVAkqQCWQAymNqbyJ1BkqrCfWIe2QtAwJ25M3RTBLH3Lu7KnUOSqmLvXdwVUVYJqMLYl70AALfmDtBl25YPsTt3CEmqipl94rbcObos+9hXhQLwg9wBuqy07ZWkVpS2b8y+vdkLQKrAg9BNpW2vJLUo+zvibqrCWJC9AERhT3pp2ytJLco+IHZTFcaC/AUg+F7uDF2VCtteSWpFYfvGKox92QtAs8mG3Bm6KQXX5s4gSVVT2r6xCmNf9gKweohvBdyQO0eX3L51gOtzh5CkqpnZN96eO0c3BNyweohv5c6RvQAAEHwyd4RuCPjU+Ylm7hySVDXnJ5oBn8qdoysqMuZVogCk4KrcGbohUcZ2StJclLKPrMqYV4kCMLyMGyD/4ZCOCu7pn87/mY8kVVX/NBsI7smdo8O+NTPmZVeJAgBA8OHcEToq8TGvAChJj275ELtJfCx3jo6q0FhXmQJwf4OLAm7LnaMTIvjx7j7Oz51Dkqpudx/nR/Dj3Dk6IeC2+xtclDvHQypTAM5ZyvYU/GHuHJ2QEu898xjuyJ1DkqruzGO4IyXemztHJ6TgD89ZyvbcOR5SmQIAsHWAK+p2SmAE39u5g/fnziFJvWLnDt5fhQvltFPADVsHuCJ3joerVAE4P9GM4Pdy52ir4Nyzj2dH7hiS1CvOPp4dBOfmztFOEfxe1U4Dr1QBAFg1yN8DV+bO0Q4RbBge5KO5c0hSrxke5KMRtTlz6sqZsa1SKlcAAHbu4M3Axtw59kTAzQvmc0pKRO4sktRrUiIWzOeUgJtzZ9lDG2fGtMqpZAE4+3h29E9zEsH3c2eZiwjujsSJpx/NXbmzSFKvOv1o7orEiRHcnTvLnATf75/mpKp+DFzJAgCwfIjbIvEaojrfmGxFwO6UeP2qpdyUO4sk9bpVS7kpJV4f9Nh1VILtkXjN8qHqnt5e2QIAMDLA5hT8BjCVO0srIogUrBgeqM3nVpKU3fAAG1KwIqJnPlKdSsFvjAywOXeQx1LpAgCwchlXE7wc2JY7y2OZuXDFycODfCh3Fkmqm5l968k9cJGgbQQvX7mMq3MHeTyVLwAAw4P8A/0sC9iUO8sjieDfU3DcyCCfzp1FkupqZJBPp+C4CP49d5ZHErCJfpYND/IPubO0oicKAMDw8/jewnt4cVCd6ygDRHDNvCbHDS/jm7mzSFLdDS/jm/OaHBfBNbmzPFzAhxfew4uHn9c7FzDqzx1gNt50AjuB37p0gi834F0knpwtzIN3rPrj4QEu8lQ/Seqe5UPcG8Fr105yNnAuiQOzhQnuaMJ5qwa5PFuGOeqZIwAPt2qQy+9vcARwXsC9XV79jgjem/o5fHiQ9zn4S1L3pUQMD/K+1M/hEbwXunuq3czYc979DY7oxcEfeuwIwMPN3FDhj//sRi57YDdvB0YS7NXBVU4FXD5vmv9d5dM6JKkkK4/hbuBt6zYyuruPP0pwGh0c2wJ2AmML5nFBr1/rpWcLwENmnoBzxr7CRfTzOhq8JuAX2lEGAnYTfDkS18yf5pPLh/huGyJLktps5o3ZinUbuWCqwckkXhPwkgTz9nTZATsTXEuTa5jiUyPHcXsbImeXcgfohHUb2Wc68fJInAi8PODQlJjfwqxTBLcHfInENfOm+fzyoa5/xDBrYxO8JyXemjuHpDJE8N6RQd6WO8fjGb2e/ect4JVNOJHghJRYQgtvfGfe/P2AxBcJrtnR4P9W6Ta+7dLzRwAeyfIh7geunvkhgjT2VZ7Qt4Al002WpOBgGjwJuJsmtzcTt/U3uO2OY7mzandrkiTNzeoX8CPgb2Z+iCBdtoVFMc3BzT6WpGAJcFAKftiE2+jj9vm7ue1/LeOHJXy/q5YF4KfNPJE/nPm5MXMcSVIGM2PB1pmfGx5tuuVdS5RXT54FIEmS9owFQJKkAlkAJEkqkAVAkqQCWQAkSSqQBUCSpAJZACRJKpAFQJKkAlkAJEkqkAVAkqQCWQAkSSqQBUCSpAJZACRJKpAFQJKkAlkAJEkqkAVAkqQCWQAkSSqQBUCSpAJZACRJKpAFQJKkAlkAJEkqkAVAkqQCWQAkSSqQBUCSpAJZACRJKpAFQJKkAlkAJEkqkAVAkqQCWQAkSSqQBaAGUiJyZ5BUDvc59WABqIEE9+TOIKkc7nPqwQJQAwE/yJ1BUjnc59SDBaAGUuLW3BkklcN9Tj1YAOog2cYldZH7nFqwANRAs88/Rknd4z6nHiwANTByNPdF8OPcOSTVXwQ/Hjma+3Ln0J6zANRF4mu5I0gqgPua2rAA1MencgeQVAT3NTVhAaiLJlfljiCpAO5rasMCUBMjy7iF8NCcpA4KvjayjFtyx1B7WABqJJLNXFLnuI+pFwtAvfjHKamT3MfUiAWgRkYG2BxwXe4ckuon4LqRATbnzqH2sQDUTeItuSNIqiH3LbVjAaiZkaV8Bbgydw5JtXLlzL5FNWIBqKEGvJ3ggdw5JNVA8EAD3p47htrPAlBDKwb4j4DR3Dkk9b6A0RUD/EfuHGo/C0BNzWvyboLv5M4hqYcF35nX5N25Y6gzLAA1tXyIextwYsC9ubNI6j3Bg/uQ5UPuQ+rKAlBjKwb5RoJTA6ZzZ5HUOwKmE5y6YpBv5M6izrEA1NzwAF9IwRm5c0jqHSk4Y3iAL+TOoc6yABRgeJC1wCW5c0jqCZfM7DNUcxaAQmxdylkEF+bOIanCggu3LuWs3DHUHSl3AHXXpZv4tdTgQwn2yZ1FUmXsSMFpKwf569xB1D0WgAKNTbKU4KqUeHruLJLyiuB70cfrVh3LRO4s6i4/AijQyACbYzdDwBdzZ5GU1T82Ggw5+JfJIwAFiyBdtplTIngXiaNy55HUNd9KwR+tGOBjKRG5wygPjwAULCVi5QB/s+gWntsMTif4fu5Mkjon4DaarOif5jkrB/lrB/+yeQRA/98VG9jr/oNYSXA2cEjuPJLa5vYEH9ixg0vOPp4ducOoGiwA+m8iSGMTLEsNXkPwmpQYyJ1J0uwE3EBwDQ2uGT6Wr/puXz/NAqDHNbqFp/RPcSINXgIcGrAkBYeQWJg7m1S6gPsT3MrMT4J/6pvmmuVDfDd3NlWbBUBzNno9+6d+DunrY0k0WdCJdaQ+DiC4shPLrpqAf6XJH+XO0VGJ81Pi+bljdEXi12K6MzfSSQ0eoMnt/cGt3qxHc2UBUKWNbeJVqcHncufoiuCO4UEOzh2jk8YmuTXBktw5uiEFv7xysJDXrnqSZwGo2hIvzh2haxJPvmyCI3PH6JTLJnl6KYM/QJT02lVPsgCo0hK8KHeGbmrWeNCI4PjcGbqsts+l6sECoGpLDOaO0E1Bfc+4CFiaO0M3RdT3uVQ9WABUWetvZD6wf+4c3ZTgSbkzdErUeNseSUrsd9F17J07h/RoLACqrLt38sTcGbotosbbnGq8bY9ir/3KKj3qLRYAVdZ0f3kDRp0HyVTncvMomk0W5c4gPRoLgKorcVDuCF0X9d3mKPH5nC6v9Kh3WABUWdNN+nJn6LaUarzNUeNtexSpwG1W77AASJJUIAuAJEkFsgBIklQgC4AkSQWyAEiSVCALgCRJBbIASJJUIAuAJEkFsgBIklQgC4AkSQWyAEiSVCALgCRJBbIASJJUIAuAJEkFsgBIklQgC4AkSQWyAEiSVCALgCRJBbIASJJUIAuAJEkFsgBIklQgC4AkSQWyAEiSVCALgCRJBbIASJJUIAuAJEkFsgBIklQgC4AkSQWyAEiSVCALgCRJBbIASJJUIAuAJEkFsgBIklQgC4AkSQWyAEiSVCALgCRJBbIASJJUIAuAJEkFsgBIklQgC4AkSQWyAEiSVCALgCRJBbIASJJUIAuAJEkFsgBIklQgC4AkSQWyAEiSVCALgCRJBbIASJJUIAuAJEkFsgBIklQgC4AkSQWyAEiSVCALgCRJBbIASJJUIAuAJEkFsgBIklQgC4AkSQWyAEiSVCALgCRJBbIASJJUIAuAqqvJA7kjdF3UeJtTjbftUaRGedus3mEBUGUluDV3hgxqu80lPp+pUd42q3dYAFRZixdwWwSRO0eX/SB3gE6JGm/bo2n2lbfN6h0WAFXWqUezKyXuzJ2jy2r7jrG0IwAR/HjkaO7LnUN6NBYAVVsU9w6qtttb2hGAlMraXvUeC4AqrbRBo87bG+UNiKVtr3qMBUDVlvhm7ghdVePtbU7Vd9seURS2veo5FgBVW+LTuSN00S0jA3w9d4hOWT3Et4j6bt9PSxT12lUPsgCo0rYdy3XA7blzdEVwVe4IHZf4ZO4I3RDBXXfcy5dy55AeiwVAlXZ+okmU8U4qNes/OAb130YAEtecfwJTuWNIj8UCoOor4F1jBD9YsYyv5M7RaSMDbI7g27lzdFqjgDKn3mcBUOX1T7Mhgrtz5+ikBFelVMhFj+pe6IL79v4RX8gdQ3o8FgBV3vIhdgPvy52jUyLYNd3g/blzdMt0g1FgR+4cHZO4+E0nsDN3DOnxWADUEx7YycUE38+doxNS4tIzlvKd3Dm6ZfWxfD+itoXn9pjHn+QOIbXCAqCecPbx7ADOzZ2j3SK4axe8K3eObttrb95LcEfuHO2WYI2X/1WvsACoZ6wc4CMRTObO0U6ReOdZA9yTO0e3nfYcfhyJNblztFXw9SfdzIdyx5BaZQFQz0iJSImzc+doo1vmTzOeO0Qui2/m8oBv5M7RLgnOOfVUpnPnkFplAVBPGR5gQ8AFuXPssWB7Spw68wXHIp16KtPR4Nci+HHuLHssuHjlIJ/LHUOaDQuAes7wUs4FPp47x5wFzYDfXLm0Xh9nzMWqY/ka8GtB775zjuCarQP8Xu4c0mxZANRzUiJ27uB/RvDV3FnmpME5I4NlXN2wFSOD/G2KHv1oJ9i8o8Gvn59o5o4izVbKHUCaqw/cwJP7p/lqgsNyZ2lZsG54kN/NHaOKxia5LNFTj82tDXj+igFv+6ve5BEA9awzj+GO1ORVvXJp2Qg+uvVeRnLnqKpt97AK+EjuHK0I+G6zwasc/NXLPAKgnvdnN/KEB3bxsZR4Re4sj2Tm8+1zRga4OHeWXnDpJGc24EKgP3eWRxLBhml4w+pBtuXOIu0JjwCo551+NHctvoVfjqjkFdh+SJNXOvi3btUAHwBeAdUbYANGt93LKxz8VQceAVCtjG/mDTT5EImFubME3NBMvK6ky/y207qNHDbV4CoSg7mzADuiyfKRZb3xEYXUCo8AqFaGl/J/msFRAX8aZDvH/laarJg3zZCD/9wtH+K7W+/luID/lfE+EFPA5fTzLAd/1Y1HAFRboxs5or/B+cCvkzpfdgPuJHjPwnsZ925w7XXFBvbafiArErwdWNTp9UUQwPpo8EerlnJTp9cn5WABUO2t3czREZxLcCKJfdu9/JmzEP5ir735wGnPqcFV7Sps7Eb2ZRdnAb+dEoe3fQXB9kj8LfDukQE2t335UoVYAFSM0ZtYMO8+fqGZOCnBScAhc1lOBJHgqwFXNxpcvXIpN7Y5qlqwdjNHN5sPPpcBz09pzvuzWyP4TEpcvc89fNGjNyqFBUBFiiCNTbCskXhRwCEkDk6wJIIlJA5OwX4BW4HbSNyegtsCbmvAfzR38/mR47g99zbov4x9hYMb83hlE56eYEkklhAcDCxJsDgSPya4PaUHn0eC2xPc2gz+eWSQTSkRubdB6rb/B/334TL7u8t3AAAAAElFTkSuQmCC" parent="1" vertex="1">
          <mxGeometry x="642.5" y="172.5" width="15" height="15" as="geometry" />
        </mxCell>
        <mxCell id="hknT0nu2qaCQ0JWSeQc5-10" style="edgeStyle=orthogonalEdgeStyle;rounded=0;orthogonalLoop=1;jettySize=auto;html=1;exitX=1;exitY=0.25;exitDx=0;exitDy=0;entryX=1;entryY=0;entryDx=0;entryDy=0;fillColor=#a0522d;strokeColor=#6D1F00;startArrow=classic;startFill=1;" parent="1" source="hknT0nu2qaCQ0JWSeQc5-2" target="hknT0nu2qaCQ0JWSeQc5-3" edge="1">
          <mxGeometry relative="1" as="geometry">
            <mxPoint x="935" y="375" as="targetPoint" />
            <Array as="points">
              <mxPoint x="939" y="452" />
              <mxPoint x="940" y="452" />
              <mxPoint x="940" y="372" />
            </Array>
          </mxGeometry>
        </mxCell>
        <mxCell id="hknT0nu2qaCQ0JWSeQc5-7" style="edgeStyle=orthogonalEdgeStyle;rounded=0;orthogonalLoop=1;jettySize=auto;html=1;exitX=0.75;exitY=1;exitDx=0;exitDy=0;fillColor=#f0a30a;strokeColor=#BD7000;startArrow=classic;startFill=1;" parent="1" source="hknT0nu2qaCQ0JWSeQc5-3" target="hknT0nu2qaCQ0JWSeQc5-2" edge="1">
          <mxGeometry relative="1" as="geometry" />
        </mxCell>
        <mxCell id="hknT0nu2qaCQ0JWSeQc5-6" style="edgeStyle=orthogonalEdgeStyle;rounded=0;orthogonalLoop=1;jettySize=auto;html=1;exitX=0.25;exitY=1;exitDx=0;exitDy=0;fillColor=#f0a30a;strokeColor=#BD7000;startArrow=classic;startFill=1;" parent="1" source="hknT0nu2qaCQ0JWSeQc5-3" target="hknT0nu2qaCQ0JWSeQc5-1" edge="1">
          <mxGeometry relative="1" as="geometry" />
        </mxCell>
      </root>
    </mxGraphModel>
  </diagram>
</mxfile>
